<?xml version="1.0" ?><!DOCTYPE svg  PUBLIC '-//W3C//DTD SVG 1.1//EN'  'http://www.w3.org/Graphics/SVG/1.1/DTD/svg11.dtd'><svg enable-background="new 0 0 130 130" height="130px" id="Layer_1" version="1.1" viewBox="0 0 130 130" width="130px" xml:space="preserve" xmlns="http://www.w3.org/2000/svg" xmlns:xlink="http://www.w3.org/1999/xlink"><g><g><g><g><path d="M107.373,86.225c3.119-6.307,4.881-13.406,4.881-20.92c0-26.098-21.154-47.256-47.254-47.256      S17.746,39.207,17.746,65.305c0,7.514,1.762,14.613,4.881,20.92H107.373z" fill="#9DD850"/><g><path d="       M100.314,57.662c0-4.545-3.684-8.227-8.229-8.227c-4.543,0-8.227,3.682-8.227,8.227h-8.621" fill="none" stroke="#C9F484" stroke-linecap="round" stroke-linejoin="round" stroke-miterlimit="10" stroke-width="2"/><path d="       M104.486,57.662c0-3.174-2.572-5.746-5.746-5.746" fill="none" stroke="#C9F484" stroke-linecap="round" stroke-linejoin="round" stroke-miterlimit="10" stroke-width="2"/></g><line fill="none" stroke="#343D47" stroke-linecap="round" stroke-linejoin="round" stroke-miterlimit="10" stroke-width="2" x1="18.476" x2="111.523" y1="86.225" y2="86.225"/></g><circle cx="59.192" cy="29.379" fill="#C9F484" r="1.312"/><circle cx="67.51" cy="35.922" fill="#C9F484" r="1.312"/><circle cx="65.451" cy="29.943" fill="#C9F484" r="0.746"/><circle cx="47.921" cy="33.049" fill="#C9F484" r="0.746"/><circle cx="54.314" cy="23.371" fill="#C9F484" r="0.746"/></g><g><g><path d="M70.775,103.785h-4.75c0-2.256-1.828-4.084-4.084-4.084h-9.182l0,0c0-2.256-1.828-4.084-4.084-4.084      h-2.818c-2.256,0-4.084,1.828-4.084,4.084l0,0h-5.664c-2.256,0-4.084,1.828-4.084,4.084s1.828,4.084,4.084,4.084h4.75      c0,2.256,1.828,4.082,4.084,4.082h25.832c2.256,0,4.084-1.828,4.084-4.084C74.859,105.613,73.031,103.785,70.775,103.785z" fill="#F4537A"/><path d="M52.759,99.701L52.759,99.701c0-0.711-0.199-1.369-0.518-1.951l-7.207-2.049      c-1.861,0.379-3.262,2.025-3.262,4l0,0h-5.664c-2.256,0-4.084,1.828-4.084,4.084s1.828,4.084,4.084,4.084h1.713l21.285-8.168      H52.759z" fill="#CE4A70"/><g><line fill="none" stroke="#343D47" stroke-linecap="round" stroke-linejoin="round" stroke-miterlimit="10" stroke-width="2" x1="46.64" x2="75.357" y1="99.709" y2="99.709"/><line fill="none" stroke="#343D47" stroke-linecap="round" stroke-linejoin="round" stroke-miterlimit="10" stroke-width="2" x1="51.093" x2="79.81" y1="95.256" y2="95.256"/><line fill="none" stroke="#343D47" stroke-linecap="round" stroke-linejoin="round" stroke-miterlimit="10" stroke-width="2" x1="55.546" x2="84.263" y1="90.803" y2="90.803"/></g><path d="M87.599,103.785h-2.818c-2.256,0-4.084,1.828-4.084,4.082c0,2.256,1.828,4.084,4.084,4.084h2.818      c2.256,0,4.084-1.828,4.084-4.084C91.683,105.613,89.855,103.785,87.599,103.785z" fill="#F4537A"/></g><path d="M67.785,106.826c0,0.529-0.428,0.959-0.957,0.959H53.494c-0.529,0-0.959-0.43-0.959-0.959l0,0     c0-0.529,0.43-0.957,0.959-0.957h13.334C67.357,105.869,67.785,106.297,67.785,106.826L67.785,106.826z" fill="#FF83A6"/><path d="M72.193,106.826c0,0.529-0.428,0.959-0.957,0.959h-1.152c-0.529,0-0.959-0.43-0.959-0.959l0,0     c0-0.529,0.43-0.957,0.959-0.957h1.152C71.765,105.869,72.193,106.297,72.193,106.826L72.193,106.826z" fill="#FF83A6"/><path d="M86.189,106.826c0,0.529-0.428,0.959-0.957,0.959H84.08c-0.529,0-0.959-0.43-0.959-0.959l0,0     c0-0.529,0.43-0.957,0.959-0.957h1.152C85.761,105.869,86.189,106.297,86.189,106.826L86.189,106.826z" fill="#FF83A6"/><path d="M51.046,106.826c0,0.529-0.428,0.959-0.957,0.959h-1.152c-0.529,0-0.959-0.43-0.959-0.959l0,0     c0-0.529,0.43-0.957,0.959-0.957h1.152C50.619,105.869,51.046,106.297,51.046,106.826L51.046,106.826z" fill="#FF83A6"/><path d="M62.175,102.076c0,0.529-0.43,0.959-0.959,0.959h-1.152c-0.529,0-0.957-0.43-0.957-0.959l0,0     c0-0.529,0.428-0.957,0.957-0.957h1.152C61.746,101.119,62.175,101.547,62.175,102.076L62.175,102.076z" fill="#FF83A6"/><path d="M45.693,106.826c0,0.529-0.428,0.959-0.957,0.959h-0.098c-0.529,0-0.957-0.43-0.957-0.959l0,0     c0-0.529,0.428-0.957,0.957-0.957h0.098C45.265,105.869,45.693,106.297,45.693,106.826L45.693,106.826z" fill="#FF83A6"/><path d="M57.603,102.076c0,0.529-0.428,0.959-0.957,0.959h-0.098c-0.529,0-0.957-0.43-0.957-0.959l0,0     c0-0.529,0.428-0.957,0.957-0.957h0.098C57.175,101.119,57.603,101.547,57.603,102.076L57.603,102.076z" fill="#FF83A6"/><path d="M89.25,106.826c0,0.529-0.428,0.959-0.957,0.959h-0.098c-0.529,0-0.957-0.43-0.957-0.959l0,0     c0-0.529,0.428-0.957,0.957-0.957h0.098C88.822,105.869,89.25,106.297,89.25,106.826L89.25,106.826z" fill="#FF83A6"/></g></g><path d="M104.388,35.295c1.324-0.191,2.602-0.791,3.619-1.811c1.688-1.686,2.24-4.072,1.666-6.227   c-2.15-0.574-4.539-0.021-6.227,1.664c-1.549,1.551-2.129,3.689-1.771,5.693c-2.797-4.303-7.613-7.172-13.131-7.172   c-5.809,0-10.869,3.16-13.584,7.852c2.715,4.689,7.775,7.852,13.584,7.852c5.518,0,10.334-2.871,13.131-7.174   c-0.357,2.006,0.223,4.143,1.771,5.695c1.688,1.686,4.076,2.238,6.227,1.664c0.574-2.154,0.021-4.541-1.664-6.227   C106.99,36.084,105.712,35.486,104.388,35.295z" fill="#9DD850"/><path d="M95.142,28.912c-2.002-0.939-4.234-1.469-6.598-1.469c-5.809,0-10.869,3.16-13.584,7.852   c2.715,4.689,7.775,7.852,13.584,7.852c5.518,0,10.334-2.871,13.131-7.174c-0.357,2.006,0.223,4.143,1.771,5.695   c0.975,0.973,2.184,1.555,3.443,1.775C103.964,37.85,99.96,32.908,95.142,28.912z" fill="#C9F484"/><path d="M89.5,66.916c0.535-0.078,1.053-0.32,1.465-0.734c0.684-0.682,0.908-1.648,0.676-2.521   c-0.871-0.232-1.838-0.01-2.521,0.674c-0.627,0.629-0.863,1.494-0.719,2.307c-1.133-1.744-3.082-2.904-5.318-2.904   c-2.352,0-4.4,1.279-5.5,3.18c1.1,1.898,3.148,3.18,5.5,3.18c2.236,0,4.186-1.164,5.318-2.906   c-0.145,0.812,0.092,1.678,0.719,2.307c0.684,0.684,1.65,0.906,2.521,0.674c0.232-0.873,0.008-1.84-0.674-2.521   C90.552,67.234,90.035,66.992,89.5,66.916z" fill="#C9F484"/><path d="M81.894,77.375c0.316-0.047,0.621-0.189,0.865-0.434c0.404-0.402,0.535-0.973,0.398-1.488   c-0.514-0.139-1.086-0.006-1.488,0.398c-0.371,0.369-0.51,0.881-0.424,1.359c-0.67-1.027-1.82-1.713-3.141-1.713   c-1.389,0-2.598,0.754-3.246,1.877c0.648,1.119,1.857,1.877,3.246,1.877c1.32,0,2.471-0.688,3.141-1.715   c-0.086,0.479,0.053,0.988,0.424,1.359c0.402,0.404,0.975,0.537,1.488,0.398c0.137-0.514,0.006-1.086-0.398-1.488   C82.515,77.562,82.21,77.42,81.894,77.375z" fill="#C9F484"/><path d="M99.189,67.949c-0.402,0.402-0.535,0.975-0.396,1.488c0.514,0.139,1.084,0.006,1.488-0.398   c0.369-0.371,0.508-0.881,0.424-1.359c0.668,1.027,1.82,1.715,3.139,1.715c1.389,0,2.598-0.758,3.248-1.877   c-0.65-1.123-1.859-1.877-3.248-1.877c-1.318,0-2.471,0.686-3.139,1.713c0.084-0.479-0.055-0.99-0.424-1.359   c-0.404-0.404-0.975-0.537-1.488-0.398c-0.139,0.516-0.006,1.086,0.398,1.488c0.242,0.244,0.549,0.387,0.865,0.434   C99.74,67.562,99.433,67.705,99.189,67.949z" fill="#C9F484"/><path d="M92.427,78.268c-0.682,0.684-0.906,1.65-0.674,2.523c0.871,0.232,1.838,0.008,2.521-0.676   c0.627-0.629,0.863-1.494,0.719-2.305c1.133,1.742,3.082,2.904,5.318,2.904c2.352,0,4.4-1.281,5.5-3.18   c-1.1-1.9-3.148-3.18-5.5-3.18c-2.236,0-4.186,1.162-5.318,2.904c0.145-0.812-0.092-1.678-0.719-2.305   c-0.684-0.684-1.65-0.908-2.521-0.676c-0.232,0.873-0.008,1.84,0.676,2.521c0.412,0.414,0.93,0.656,1.465,0.734   C93.359,77.613,92.841,77.855,92.427,78.268z" fill="#C9F484"/><g><g><path d="M51.117,39.375H38.257c-10.652,0-19.289,8.637-19.289,19.289v41.045h51.438V58.664     C70.406,48.012,61.771,39.375,51.117,39.375z" fill="#626B72"/><path d="M51.117,47.369H38.257c-10.652,0-19.289,8.637-19.289,19.289v33.051h51.438V66.658     C70.406,56.006,61.771,47.369,51.117,47.369z" fill="#48525B"/><path d="M60.796,82.129c0,0.844-0.686,1.529-1.531,1.529H30.111c-0.846,0-1.531-0.686-1.531-1.529l0,0     c0-0.846,0.686-1.531,1.531-1.531h29.154C60.111,80.598,60.796,81.283,60.796,82.129L60.796,82.129z" fill="#626B72"/><rect fill="#F4D037" height="4.453" width="51.438" x="18.968" y="95.256"/><rect fill="#E88C13" height="2.422" width="51.438" x="18.968" y="97.287"/><rect fill="none" height="4.453" stroke="#343D47" stroke-linecap="round" stroke-linejoin="round" stroke-miterlimit="10" stroke-width="2" width="51.438" x="18.968" y="95.256"/><path d="     M51.117,39.375H38.257c-10.652,0-19.289,8.637-19.289,19.289v41.045h51.438V58.664C70.406,48.012,61.771,39.375,51.117,39.375z" fill="none" stroke="#343D47" stroke-linecap="round" stroke-linejoin="round" stroke-miterlimit="10" stroke-width="2"/></g><g><g><path d="M27.259,63.773c-0.412,0.088-0.803,0.213-1.186,0.354c-0.053,0.801-0.004,1.621,0.174,2.443      c1.035,4.779,5.746,7.818,10.525,6.785c0.41-0.09,0.803-0.215,1.188-0.355c0.051-0.801,0.002-1.621-0.176-2.443      C36.751,65.777,32.039,62.738,27.259,63.773z" fill="#F4D037"/><path d="M36.773,73.355c0.41-0.09,0.803-0.215,1.188-0.355c0.051-0.801,0.002-1.621-0.176-2.443      c-1.033-4.779-5.746-7.818-10.525-6.783c-0.412,0.088-0.803,0.213-1.186,0.354" fill="#E88C13"/><path d="      M27.259,63.773c-0.412,0.088-0.803,0.213-1.186,0.354c-0.053,0.801-0.004,1.621,0.174,2.443      c1.035,4.779,5.746,7.818,10.525,6.785c0.41-0.09,0.803-0.215,1.188-0.355c0.051-0.801,0.002-1.621-0.176-2.443      C36.751,65.777,32.039,62.738,27.259,63.773z" fill="none" stroke="#343D47" stroke-linecap="round" stroke-linejoin="round" stroke-miterlimit="10" stroke-width="2"/><line fill="none" stroke="#343D47" stroke-linecap="round" stroke-linejoin="round" stroke-miterlimit="10" stroke-width="2" x1="32.57" x2="32.57" y1="67.516" y2="69.818"/></g><g><path d="M62.117,63.773c0.41,0.088,0.803,0.213,1.186,0.354c0.051,0.801,0.002,1.621-0.176,2.443      c-1.033,4.779-5.746,7.818-10.525,6.785c-0.41-0.09-0.803-0.215-1.186-0.355c-0.053-0.801-0.002-1.621,0.174-2.443      C52.625,65.777,57.335,62.738,62.117,63.773z" fill="#F4D037"/><path d="M52.601,73.355c-0.41-0.09-0.803-0.215-1.186-0.355c-0.053-0.801-0.002-1.621,0.174-2.443      c1.035-4.779,5.746-7.818,10.527-6.783c0.41,0.088,0.803,0.213,1.186,0.354" fill="#E88C13"/><path d="      M62.117,63.773c0.41,0.088,0.803,0.213,1.186,0.354c0.051,0.801,0.002,1.621-0.176,2.443c-1.033,4.779-5.746,7.818-10.525,6.785      c-0.41-0.09-0.803-0.215-1.186-0.355c-0.053-0.801-0.002-1.621,0.174-2.443C52.625,65.777,57.335,62.738,62.117,63.773z" fill="none" stroke="#343D47" stroke-linecap="round" stroke-linejoin="round" stroke-miterlimit="10" stroke-width="2"/><line fill="none" stroke="#343D47" stroke-linecap="round" stroke-linejoin="round" stroke-miterlimit="10" stroke-width="2" x1="56.804" x2="56.804" y1="67.516" y2="69.818"/></g></g><path d="M50.482,77.535c0,1.691-1.371,3.062-3.062,3.062h-5.465c-1.691,0-3.062-1.371-3.062-3.062l0,0    c0-1.691,1.371-3.062,3.062-3.062h5.465C49.111,74.473,50.482,75.844,50.482,77.535L50.482,77.535z" fill="#CE4A70"/><path d="M47.419,74.473h-5.465c-1.131,0-2.105,0.619-2.637,1.531c0.531,0.912,1.506,1.531,2.637,1.531h5.465    c1.131,0,2.107-0.619,2.637-1.531C49.527,75.092,48.55,74.473,47.419,74.473z" fill="#F4537A"/><path d="    M50.482,77.535c0,1.691-1.371,3.062-3.062,3.062h-5.465c-1.691,0-3.062-1.371-3.062-3.062l0,0c0-1.691,1.371-3.062,3.062-3.062    h5.465C49.111,74.473,50.482,75.844,50.482,77.535L50.482,77.535z" fill="none" stroke="#343D47" stroke-linecap="round" stroke-linejoin="round" stroke-miterlimit="10" stroke-width="2"/><path d="M54.779,83.918v4.484c0,2.287-1.854,4.141-4.141,4.141H38.736c-2.285,0-4.139-1.854-4.139-4.141v-4.484" fill="#CE4A70"/><rect fill="#A5375C" height="3.625" width="20.182" x="34.597" y="83.918"/><path d="    M54.779,83.918v4.484c0,2.287-1.854,4.141-4.141,4.141H38.736c-2.285,0-4.139-1.854-4.139-4.141v-4.484" fill="none" stroke="#343D47" stroke-linecap="round" stroke-linejoin="round" stroke-miterlimit="10" stroke-width="2"/><path d="    M58.291,76.004c2.186,0,3.957,1.771,3.957,3.957l0,0c0,2.186-1.771,3.957-3.957,3.957H31.085c-2.186,0-3.957-1.771-3.957-3.957    l0,0c0-2.186,1.771-3.957,3.957-3.957" fill="none" stroke="#343D47" stroke-linecap="round" stroke-linejoin="round" stroke-miterlimit="10" stroke-width="2"/><path d="M26.863,36.391c-0.725,0.482-1.398,1.064-1.992,1.76c-3.438,4.045-2.951,10.109,1.092,13.549    c0.346,0.293,0.713,0.551,1.088,0.789L26.863,36.391z" fill="#CE4A70"/><g><g><path d="M29.896,31.756c-0.469-0.398-0.963-0.746-1.471-1.066c-0.98,0.654-1.895,1.443-2.695,2.385      c-4.656,5.477-3.996,13.688,1.477,18.346c0.469,0.398,0.965,0.746,1.475,1.068c0.98-0.654,1.895-1.445,2.695-2.387      C36.033,44.627,35.373,36.414,29.896,31.756z" fill="#48525B"/><path d="M28.425,30.689c-0.98,0.654-1.895,1.443-2.695,2.385c-4.656,5.477-3.996,13.688,1.477,18.346      c0.469,0.398,0.965,0.746,1.475,1.068L28.425,30.689z" fill="#F4537A"/><path d="      M28.425,30.689c-0.98,0.654-1.895,1.443-2.695,2.385c-4.656,5.477-3.996,13.688,1.477,18.346      c0.469,0.398,0.965,0.746,1.475,1.068L28.425,30.689z" fill="none" stroke="#343D47" stroke-linecap="round" stroke-linejoin="round" stroke-miterlimit="10" stroke-width="2"/><path d="      M34.201,44.357c0.949-4.518-0.541-9.398-4.305-12.602c-0.469-0.398-0.963-0.746-1.471-1.066      c-0.98,0.654-1.895,1.443-2.695,2.385c-4.656,5.477-3.996,13.688,1.477,18.346c0.469,0.398,0.965,0.746,1.475,1.068" fill="none" stroke="#343D47" stroke-linecap="round" stroke-linejoin="round" stroke-miterlimit="10" stroke-width="2"/></g><g><path d="M59.478,31.756c0.469-0.398,0.965-0.746,1.471-1.066c0.982,0.654,1.895,1.443,2.697,2.385      c4.656,5.477,3.996,13.688-1.477,18.346c-0.471,0.398-0.967,0.746-1.475,1.068c-0.982-0.654-1.896-1.445-2.697-2.387      C53.341,44.627,54.003,36.414,59.478,31.756z" fill="#48525B"/><path d="M60.949,30.689c0.982,0.654,1.895,1.443,2.697,2.385c4.656,5.477,3.996,13.688-1.477,18.346      c-0.471,0.398-0.967,0.746-1.475,1.068L60.949,30.689z" fill="#F4537A"/><path d="      M60.949,30.689c0.982,0.654,1.895,1.443,2.697,2.385c4.656,5.477,3.996,13.688-1.477,18.346      c-0.471,0.398-0.967,0.746-1.475,1.068L60.949,30.689z" fill="none" stroke="#343D47" stroke-linecap="round" stroke-linejoin="round" stroke-miterlimit="10" stroke-width="2"/><path d="      M55.175,44.357c-0.949-4.518,0.539-9.398,4.303-12.602c0.469-0.398,0.965-0.746,1.471-1.066      c0.982,0.654,1.895,1.443,2.697,2.385c4.656,5.477,3.996,13.688-1.477,18.346c-0.471,0.398-0.967,0.746-1.475,1.068" fill="none" stroke="#343D47" stroke-linecap="round" stroke-linejoin="round" stroke-miterlimit="10" stroke-width="2"/></g></g><g><g><polygon fill="#FFFFFF" points="30.873,83.918 34.156,90.719 37.441,83.918     "/><polygon fill="none" points="      30.873,83.918 34.156,90.719 37.441,83.918     " stroke="#343D47" stroke-linecap="round" stroke-linejoin="round" stroke-miterlimit="10" stroke-width="2"/></g><g><polygon fill="#FFFFFF" points="51.935,83.918 55.218,90.719 58.503,83.918     "/><polygon fill="none" points="      51.935,83.918 55.218,90.719 58.503,83.918     " stroke="#343D47" stroke-linecap="round" stroke-linejoin="round" stroke-miterlimit="10" stroke-width="2"/></g></g></g></g></svg>